<svg width="120" height="120" viewBox="0 0 1024 1024" xmlns="http://www.w3.org/2000/svg" fill="#000000">
  <defs>
    <filter id="shadow" x="-50%" y="-50%" width="200%" height="200%">
      <feDropShadow dx="0" dy="4" stdDeviation="8" flood-color="#000000" flood-opacity="0.1"/>
    </filter>
  </defs>

  <g id="bgCarrier" stroke-width="0"/>
  <g id="tracerCarrier" stroke-linecap="round" stroke-linejoin="round"/>
  
  <g id="iconCarrier">
    <path d="M993.763 493.538v35c0 13.331-6.04 26.664-18.135 37.137-140.149 121.422-280.35 242.795-420.49 364.219-11.813 10.237-25.813 15.501-42.454 15.501v-35c16.644 0 30.641-5.264 42.454-15.501C695.28 773.47 835.474 652.092 975.628 530.677c12.095-10.475 18.135-23.803 18.135-37.139z" fill="#667eea"/>
    
    <path d="M30.239 528.367v-3.5-1.75-3.5-3.5-1.75-3.5-3.5-1.75-3.5-3.5-1.75-3.5c0 14.707 6.701 29.313 19.037 40.019 138.449 120.064 277.049 239.996 415.562 360.02 13.002 11.26 28.74 16.466 47.853 16.994v35c-19.108-0.528-34.851-5.734-47.853-16.994C326.325 808.382 187.725 688.45 49.276 568.386c-12.337-10.705-19.037-25.312-19.037-40.019z" fill="#667eea"/>
    
    <path d="M510.786 76.601c16.263 0 32.546 5.362 44.946 16.097 139.949 121.188 279.9 242.376 419.818 363.586 24.241 20.995 24.295 53.413 0.079 74.396C835.48 652.101 695.28 773.478 555.141 894.898c-11.814 10.238-25.813 15.502-42.451 15.502-19.109-0.528-34.853-5.734-47.854-16.994C326.324 773.382 187.724 653.45 49.275 533.386c-19.581-16.987-24.96-43.81-11.895-65.251 3.919-6.438 8.669-11.829 14.465-16.849C189.954 331.734 328.024 212.152 466.107 92.567c12.296-10.64 28.478-15.966 44.679-15.966z" fill="#241f31"/>
    
    <!-- User profile section -->
    <path d="M626.529 404.708v16.8c0-10.046-0.126-20.086-0.771-30.107-1.833-28.476-16.591-51.767-41.971-69.721-20.742-14.683-44.468-22.142-70.409-22.144-3.887 0-7.82 0.168-11.804 0.502-36.619 3.091-65.348 18.376-85.729 45.001-12.369 16.167-17.875 34.184-18.509 53.478-0.229 6.721-5.733 11.24-12.48 11.24-1.32 0-2.692-0.171-4.081-0.539-5.454-1.43-8.931-5.542-8.859-10.893v-16.8c-0.071 5.35 3.407 9.462 8.859 10.893 1.388 0.367 2.759 0.539 4.081 0.539 6.749 0 12.253-4.519 12.48-11.24 0.634-19.292 6.139-37.311 18.509-53.478 20.381-26.625 49.109-41.911 85.729-45.001 3.983-0.336 7.917-0.502 11.804-0.502 25.941 0.001 49.667 7.46 70.409 22.144 25.382 17.957 40.139 41.245 41.971 69.722 0.645 10.019 0.771 20.059 0.771 30.106z" fill="#ffffff"/>
    
    <!-- Login form section -->
    <path d="M657.734 456.109v16.8H366.169v-16.8h291.565z" fill="#ffffff"/>
    
    <!-- Lock/security elements -->
    <path d="M560.032 547.158v16.8c0.015-22.13-21.234-40.868-47.078-41.354a46.276 46.276 0 0 0-1.051-0.011v-16.8c0.349 0 0.699 0.003 1.051 0.01 25.844 0.487 47.092 19.225 47.078 41.355z" fill="#ffffff"/>
    
    <!-- Additional security/login UI elements -->
    <path d="M658.016 459.199c0.006 25.086 0.037 50.174 0.04 75.262 0.001 19.514-0.013 39.027-0.069 58.544-0.061 21.273-16.674 38.261-40.704 41.954-3.204 0.497-6.53 0.559-9.808 0.559-19.116 0.01-38.23 0.018-57.347 0.023-18.067 0.006-36.149 0.01-54.22 0.011h-1.042c-13.705 0-26.732-0.004-39.763-0.01-12.807-0.005-25.609-0.012-38.414-0.024-24.898-0.019-43.889-12.691-49.32-32.859-0.877-3.237-1.291-6.651-1.291-9.978-0.05-27.881-0.063-55.758-0.063-83.63 0-16.725 0.008-33.452 0.012-50.176 0-0.767 0.07-1.527 0.141-2.767h291.565c0.101 1.1 0.283 2.095 0.283 3.091z" fill="#ffffff"/>
  </g>
</svg>